<?xml version="1.0" encoding="utf-8"?>
<!-- Generator: Adobe Illustrator 19.2.1, SVG Export Plug-In . SVG Version: 6.00 Build 0)  -->
<svg version="1.1" id="imgs" xmlns="http://www.w3.org/2000/svg" xmlns:xlink="http://www.w3.org/1999/xlink" x="0px" y="0px"
	 width="50px" height="1325px" viewBox="0 0 50 1325" enable-background="new 0 0 50 1325" xml:space="preserve">
<path fill="#010000" d="M16.78793,1302.62109c-4.6197,2.30981-5.3781,6.62305-5.5084,11.20239h-0.0374v2.77295h2.7729h2.9143
	c0.6433,3.16528,3.4383,5.54578,6.7908,5.54578c3.3524,0,6.153-2.38049,6.7908-5.54578h2.7728h2.9144h13.8645v-2.77295h-13.8645
	h-2.9144h-2.7728c-0.6378-3.16516-3.4384-5.54565-6.7908-5.54565c-3.3525,0-6.1475,2.38049-6.7908,5.54565h-2.8492
	c0.3037-6.0144,1.6623-7.67383,3.785-8.64026c3.125-1.42249,5.8868-2.82556,8.5516-4.51428
	c4.847-3.07373,9.8632-6.25562,18.1001-6.25562h5.5458v-2.77295h-5.5458
	C30.65233,1291.64038,25.10653,1299.84827,16.78793,1302.62109 M23.72013,1311.05066c2.2959,0,4.1593,1.86621,4.1593,4.1593
	c0,2.29321-1.8634,4.1593-4.1593,4.1593c-2.2905,0-4.1593-1.86609-4.1593-4.1593
	C19.56083,1312.91687,21.42963,1311.05066,23.72013,1311.05066 M44.51683,1286.0946h5.5458v2.77295h-5.5458h-5.5458
	c-8.2369,0-13.2531,3.18188-18.1001,6.25562c-2.6648,1.6886-5.4266,3.0918-8.5516,4.51428
	c-2.4208,1.10229-3.8501,3.0946-3.8501,11.41321h-2.7729c0-5.54578,0-11.20239,5.5458-13.97534
	c8.3187-2.77295,13.8644-10.98071,27.7289-10.98071H44.51683z M50.06263,1280.54883v2.77283h-11.0916h-5.5458
	c-8.2369,0-13.253,3.18201-18.1001,6.25574c-2.6648,1.68872-5.4266,3.09167-8.5516,4.51416
	c-2.4208,1.10242-3.8501,3.0946-3.8501,11.41333h-2.7729c0-5.54578,0-11.20251,5.5458-13.97534
	c8.3187-2.77295,13.8645-10.98071,27.7289-10.98071h5.5458H50.06263z M47.72783,1302.73206h2.3348v2.77283h-2.3348h-24.1103
	l4.2619-2.77283H47.72783z"/>
<path fill="#1D1D1B" d="M25.06033,1237.77319L25.06033,1237.77319c2.9747,0,5.7479,1.59497,7.2289,4.16809
	c1.1185,1.92712,1.4117,4.17371,0.8365,6.32593c-0.5752,2.14929-1.959,3.94861-3.8861,5.06006
	c-1.2643,0.73364-2.7024,1.11841-4.157,1.11841c-2.9747,0-5.7423-1.59497-7.2304-4.16809
	c-1.1115-1.92712-1.4046-4.17371-0.8294-6.32581c0.5752-2.15222,1.9534-3.94873,3.8805-5.06018
	C22.17323,1238.15796,23.60563,1237.77319,25.06033,1237.77319 M25.06033,1234.99438c-1.8826,0-3.793,0.48071-5.5464,1.48938
	c-5.313,3.06921-7.1373,9.87024-4.0653,15.18323c2.0563,3.56506,5.7909,5.5575,9.634,5.5575c1.8881,0,3.7985-0.48071,5.5464-1.48938
	c5.3185-3.06909,7.1372-9.87024,4.0708-15.18323C32.64213,1236.98682,28.90343,1234.99438,25.06033,1234.99438 M33.77593,1225.46899
	l4.8142,2.77869l-1.802,3.12061l-1.0365,1.79236l1.4227,1.5033c0.9434,1.00305,1.709,2.0188,2.3383,3.10938
	c0.6197,1.07397,1.1296,2.27856,1.52,3.57068l0.5919,1.98682h2.0674h3.6096v5.55762h-3.6096h-2.0729l-0.5919,1.98682
	c-0.7434,2.50085-2.073,4.81274-3.8416,6.68567l-1.4284,1.5033l1.0365,1.79651l1.7965,3.10938l-4.8142,2.77881l-1.7965-3.1095
	l-1.0365-1.79639l-2.0132,0.48352c-1.2421,0.29309-2.5231,0.44458-3.8096,0.44458c-1.3074,0-2.6218-0.15149-3.9028-0.4613
	l-2.0188-0.47803l-1.0365,1.79089l-1.802,3.12622l-4.8142-2.77881l1.8076-3.12061l1.0365-1.79639l-1.4213-1.5033
	c-0.9281-0.97681-1.7104-2.0188-2.3342-3.09839c-0.635-1.10168-1.1337-2.27441-1.5242-3.57617l-0.5918-1.98682h-2.0688h-3.6082
	v-5.55762h3.6082h2.0688l0.5918-1.98682c0.7545-2.5022,2.0841-4.81421,3.8472-6.68005l1.4269-1.50891l-1.0365-1.79089
	l-1.7964-3.11646l4.8086-2.77869l1.7965,3.11646l1.0365,1.79089l2.0187-0.47803c1.2435-0.29871,2.5301-0.45007,3.8167-0.45007
	c1.3018,0,2.6148,0.15698,3.8958,0.46118l2.0132,0.47656l1.0323-1.79089L33.77593,1225.46899 M32.76173,1221.67041l-3.197,5.53528
	c-1.4811-0.35291-3.0066-0.53625-4.5363-0.53625c-1.4881,0-2.9858,0.17371-4.4613,0.52661l-3.1859-5.52002l-9.6284,5.5575
	l3.1859,5.52002c-2.1161,2.23547-3.6305,4.92261-4.4891,7.79858h-6.387v11.11499h6.3828
	c0.4279,1.42688,1.0031,2.8219,1.7798,4.16821c0.7753,1.34631,1.6978,2.54529,2.719,3.62488l-3.1914,5.53113l9.6229,5.5575
	l3.1969-5.53674c1.4867,0.35852,3.0122,0.53772,4.5475,0.53772c1.4866,0,2.9802-0.16809,4.4557-0.521l3.1859,5.52002l9.6284-5.5575
	l-3.1914-5.52002c2.1215-2.24109,3.636-4.92822,4.4932-7.8042h6.3884v-11.11499h-6.3884
	c-0.4224-1.42688-0.999-2.82739-1.7742-4.16821c-0.7767-1.34631-1.7048-2.53967-2.7246-3.62622l3.197-5.52417L32.76173,1221.67041z"
	/>
<path fill="#010000" d="M12.54004,800.08057h8.31201v4.15625H0.07129v-4.15625h8.3125v-62.34277h4.15625V800.08057z
	 M45.79346,750.20654c-0.07324,0-7.51709-0.06055-10.99951-3.54688c-4.71387-4.71289-13.56445-4.76563-13.9375-4.76563H16.7002
	v4.15625h4.15186c0.07129,0,7.51074,0.06152,11.00342,3.54785c4.70166,4.70508,13.53076,4.76465,13.93408,4.76465v-4.15625H45.79346
	z M45.79346,754.36279c-0.00049,0-0.00342,0-0.00391,0v20.78125c-0.10986,0-7.52197-0.07031-10.99561-3.54785
	c-4.71387-4.71191-13.56445-4.76465-13.9375-4.76465H16.7002v4.15625h4.15186c0.07129,0,7.51074,0.06055,11.00342,3.54688
	c4.70166,4.70605,13.53076,4.76563,13.93408,4.76563l0,0h4.16016l-0.00391-24.9375H45.79346z"/>
<g id="dwnld">
	<g>
		<path fill="#FFFFFF" d="M50.06885,691.95654H39.23779v-21.12891H10.77979v21.12891H0.08789l24.99023,24.99023L50.06885,691.95654z
			 M14.229,695.40576v-21.12793h21.55957v21.12793h5.66211l-16.37256,16.37207L8.70605,695.40576H14.229z M30.12646,716.96533
			h16.44189v7.33008H3.44971v-7.33008h16.58057l-3.57031-3.4502H0v14.22949h50.01758v-14.22949H33.69629L30.12646,716.96533z"/>
	</g>
</g>
<g>
	<rect y="610.99463" fill="#4A4A4A" width="20" height="20"/>
	<rect x="30" y="610.99463" fill="#4A4A4A" width="20" height="20"/>
	<rect y="640.99463" fill="#4A4A4A" width="20" height="20"/>
	<rect x="30" y="640.99463" fill="#4A4A4A" width="20" height="20"/>
</g>
<g>
	<rect y="553.99463" fill="#4A4A4A" width="50" height="9"/>
	<rect y="572.99463" fill="#4A4A4A" width="50" height="9"/>
	<rect y="591.99463" fill="#4A4A4A" width="50" height="9"/>
</g>
<path id="avto_2_" fill="#B2B2B1" d="M49.84961,15.12646C49.0708,6.57861,44.15479,0.2207,35.0835,0.2207h-4.96387
	c-12.41064,0-17.375,7.34668-24.82129,9.8291C1.1626,12.1167,0.48291,15.979,0.3667,20.07764H0.3335v2.48242h2.48193h2.60889
	c0.57471,2.83398,3.07861,4.96484,6.0791,4.96484c3.00146,0,5.50586-2.13086,6.07764-4.96484h20.11133
	c0.57617,2.83398,3.0791,4.96484,6.07959,4.96484c3.42822,0,6.20557-2.77686,6.20557-6.20557
	C49.97754,21.31934,50.07959,17.77588,49.84961,15.12646 M6.26123,12.34326c2.79736-1.27344,5.27002-2.5293,7.65527-4.04053
	c4.33887-2.75244,8.82959-5.60107,16.20313-5.60107h4.96387c8.33496,0,11.09668,5.96436,11.98877,10.58887l0.33154,3.01318
	c-1.02393-0.73877-2.27051-1.18945-3.63184-1.18945c-3.00049,0-5.50342,2.13086-6.07959,4.96338H17.58105
	c-0.57178-2.83252-3.07617-4.96338-6.07764-4.96338c-3.00049,0-5.50439,2.13086-6.0791,4.96338H2.87354
	C3.14551,14.69482,4.36133,13.2085,6.26123,12.34326 M11.50342,25.04248c-2.05029,0-3.72412-1.67041-3.72412-3.72314
	c0-2.05225,1.67383-3.72412,3.72412-3.72412c2.05518,0,3.72266,1.67188,3.72266,3.72412
	C15.22607,23.37207,13.55859,25.04248,11.50342,25.04248 M43.77197,25.04248c-2.05029,0-3.72363-1.67041-3.72363-3.72314
	c0-2.05225,1.67334-3.72412,3.72363-3.72412c2.05469,0,3.72412,1.67188,3.72412,3.72412
	C47.49609,23.37207,45.82666,25.04248,43.77197,25.04248 M40.04834,5.93652c-0.8667,3.67725-3.2334,6.69531-7.05518,6.69531
	H11.41113l3.81494-2.48242h17.76709c2.9751,0,4.09229-2.82666,4.57422-4.96387C38.44434,5.30322,39.31006,5.67871,40.04834,5.93652"
	/>
<path id="Facebook_2_" fill="#FFFFFF" d="M25.09619,75.5249c-13.77686,0-24.98779,11.20996-24.98779,24.9873
	s11.21094,24.98828,24.98779,24.98828c13.77734,0,24.98779-11.21094,24.98779-24.98828S38.87598,75.5249,25.09619,75.5249z
	 M31.31104,101.39307h-4.06592c0,6.49414,0,14.48926,0,14.48926h-6.02393c0,0,0-7.91699,0-14.48926h-2.86475v-5.12305h2.86475
	V92.9585c0-2.37207,1.12793-6.0791,6.08008-6.0791l4.46387,0.0166v4.97168c0,0-2.71289,0-3.24023,0
	c-0.52783,0-1.27734,0.26367-1.27734,1.39453v3.00977h4.59082L31.31104,101.39307z"/>
<path id="Twitter_2_" fill="#FFFFFF" d="M25.00049,135.50049c-13.76611,0-24.96631,11.2002-24.96631,24.96484
	c0,13.76563,11.2002,24.96582,24.96631,24.96582c13.76514,0,24.96533-11.2002,24.96533-24.96582
	C49.96582,146.70068,38.7666,135.50049,25.00049,135.50049z M36.13721,154.75244c0.01123,0.24707,0.01611,0.49805,0.01611,0.74609
	c0,7.59277-5.77881,16.34668-16.34961,16.34668c-3.24561,0-6.26465-0.94922-8.80762-2.58105
	c0.44824,0.05273,0.9043,0.08105,1.37109,0.08105c2.69336,0,5.16895-0.91895,7.13477-2.45996
	c-2.51221-0.0459-4.63623-1.70605-5.36816-3.99121c0.35205,0.06641,0.71143,0.10352,1.08301,0.10352
	c0.52148,0,1.02979-0.06836,1.51367-0.2002c-2.62939-0.52637-4.61035-2.84863-4.61035-5.63477c0-0.02246,0-0.04883,0.00244-0.07129
	c0.771,0.42871,1.6582,0.6875,2.6001,0.71777c-1.53906-1.02832-2.55469-2.78906-2.55469-4.78223
	c0-1.05469,0.28223-2.04102,0.77588-2.88965c2.83496,3.47754,7.06982,5.76367,11.84521,6.00488
	c-0.09863-0.4209-0.15039-0.8584-0.15039-1.30957c0-3.17285,2.57471-5.74805,5.74707-5.74805
	c1.65186,0,3.14502,0.69824,4.19336,1.81543c1.31104-0.25684,2.53809-0.7334,3.65137-1.39551
	c-0.43262,1.34375-1.34082,2.46777-2.53076,3.18066c1.16357-0.1377,2.27393-0.44629,3.30176-0.9043
	C38.23389,152.93115,37.26025,153.94287,36.13721,154.75244z"/>
<polygon points="0,369.75244 7.18066,363.23389 24.97998,382.47119 42.99463,363.16455 50,369.77393 24.97998,396.82764 "/>
<polygon points="40.18652,279.56787 49.86133,290.22607 21.30957,316.64502 49.96338,343.3833 40.15381,353.78076 0,316.64502 "/>
<polygon points="9.77734,195.65674 0.10254,206.31494 28.65381,232.73389 0,259.47217 9.80957,269.86963 49.96338,232.73389 "/>
<polygon points="50,453.02002 46.87549,449.896 25,471.771 3.125,449.896 0,453.02002 21.87549,474.896 0,496.771 3.125,499.896 
	25,478.02002 46.87549,499.896 50,496.771 28.12451,474.896 "/>
<polygon points="0,433.23975 7.18066,439.75928 24.97998,420.52197 42.99463,439.82764 50,433.21924 24.97998,406.16455 "/>
<path fill="#999999" d="M47.64648,517.99463h-3.35742c-0.69092,0-1.30127,0.4834-1.55518,1.12695l-1.89209,4.87305h-1.44971
	l-1.69336-4.82129c-0.23633-0.66406-0.86963-1.17871-1.57471-1.17871H35v-1.33496c0-0.92188-1.38721-1.66504-2.30908-1.66504H25v-2
	h7.10205c0.48584,0,0.89795-0.35547,0.89795-0.8418v-1.17285c0-0.48535-0.41211-0.98535-0.89795-0.98535h-18.9873
	c-0.48584,0-1.11475,0.5-1.11475,0.98535v1.17285c0,0.48633,0.62891,0.8418,1.11475,0.8418H21v2h-9.01172
	c-0.92188,0-0.98828,0.74316-0.98828,1.66504v1.33496H6.70996C5.78809,517.99463,5,518.67041,5,519.59229v6.40234H3v-5.77441
	c0-0.48535-0.72607-0.22559-1.21191-0.22559H0.61523C0.12939,519.99463,0,519.73486,0,520.22021v15.46875
	c0,0.48535,0.12939,1.30566,0.61523,1.30566h1.17285c0.48584,0,1.21191-0.82031,1.21191-1.30566v-5.69434h2v6.51172
	c0,0.44727,0.19434,0.86816,0.51172,1.18457c0.31738,0.31543,0.74658,0.47852,1.19629,0.48633l4.42676-0.02051l4.26221,5.34668
	c0.31396,0.40723,0.81104,0.49121,1.3252,0.49121h19.37158c0.68408,0,1.29199,0.02246,1.54834-0.61035l1.95947-4.38965h1.31982
	l1.53125,4.27832c0.22461,0.69043,0.86328,0.72168,1.58936,0.72168h3.60449c0.92188,0,2.35352-0.43262,2.35352-1.35449v-22.75488
	C50,518.96338,48.56836,517.99463,47.64648,517.99463z M46,540.99463h-1.04199l-1.53076-4.77832
	c-0.22461-0.69043-0.86328-1.22168-1.58936-1.22168h-3.08545c-0.68262,0-1.29004,0.47656-1.54834,1.10938l-1.95898,4.89063h-17.9043
	l-4.26367-5.31836c-0.31641-0.40723-0.78711-0.54883-1.31445-0.55078L8,535.23975v-14.24512h3.57764
	c0.92188,0,2.42236-0.8916,2.42236-1.81348v-1.18652h18v1.47949c0,0.92188,0.18018,1.52051,1.10156,1.52051h2.13281l1.69385,4.82324
	c0.2373,0.66309,0.86963,1.17676,1.57471,1.17676h3.19775c0.69092,0,1.30127-0.4834,1.55518-1.12695l1.89209-4.87305H46V540.99463z"
	/>
<path id="avto_1_" fill="#FFCC33" d="M49.97461,52.75146C49.1958,44.20361,44.27979,37.8457,35.2085,37.8457h-4.96387
	c-12.41064,0-17.375,7.34668-24.82129,9.8291C1.2876,49.7417,0.60791,53.604,0.4917,57.70264H0.4585v2.48242h2.48193h2.60889
	c0.57471,2.83398,3.07861,4.96484,6.0791,4.96484c3.00146,0,5.50586-2.13086,6.07764-4.96484h20.11133
	c0.57617,2.83398,3.0791,4.96484,6.07959,4.96484c3.42822,0,6.20557-2.77686,6.20557-6.20557
	C50.10254,58.94434,50.20459,55.40088,49.97461,52.75146 M6.38623,49.96826c2.79736-1.27344,5.27002-2.5293,7.65527-4.04053
	c4.33887-2.75244,8.82959-5.60107,16.20313-5.60107h4.96387c8.33496,0,11.09668,5.96436,11.98877,10.58887l0.33154,3.01318
	c-1.02393-0.73877-2.27051-1.18945-3.63184-1.18945c-3.00049,0-5.50342,2.13086-6.07959,4.96338H17.70605
	c-0.57178-2.83252-3.07617-4.96338-6.07764-4.96338c-3.00049,0-5.50439,2.13086-6.0791,4.96338H2.99854
	C3.27051,52.31982,4.48633,50.8335,6.38623,49.96826 M11.62842,62.66748c-2.05029,0-3.72412-1.67041-3.72412-3.72314
	c0-2.05225,1.67383-3.72412,3.72412-3.72412c2.05518,0,3.72266,1.67188,3.72266,3.72412
	C15.35107,60.99707,13.68359,62.66748,11.62842,62.66748 M43.89697,62.66748c-2.05029,0-3.72363-1.67041-3.72363-3.72314
	c0-2.05225,1.67334-3.72412,3.72363-3.72412c2.05469,0,3.72412,1.67188,3.72412,3.72412
	C47.62109,60.99707,45.95166,62.66748,43.89697,62.66748 M40.17334,43.56152c-0.8667,3.67725-3.2334,6.69531-7.05518,6.69531
	H11.53613l3.81494-2.48242h17.76709c2.9751,0,4.09229-2.82666,4.57422-4.96387
	C38.56934,42.92822,39.43506,43.30371,40.17334,43.56152"/>
<polygon fill="#CCCCCC" points="8.30859,860.11182 50.00928,818.44189 45.87158,814.3042 0.06348,860.11182 45.87158,905.92041 
	50.00928,901.78271 "/>
<polygon fill="#FFCC33" points="8.30859,962.11182 50.00928,920.44189 45.87158,916.3042 0.06348,962.11182 45.87158,1007.92041 
	50.00928,1003.78271 "/>
<polygon fill="#CCCCCC" points="41.76367,1063.86182 0.06299,1022.19189 4.20068,1018.0542 50.00879,1063.86182 4.20068,1109.67041 
	0.06299,1105.53271 "/>
<polygon fill="#FFCC33" points="41.76367,1165.86182 0.06299,1124.19189 4.20068,1120.0542 50.00879,1165.86182 4.20068,1211.67041 
	0.06299,1207.53271 "/>
</svg>
